<svg viewBox="0 0 479 409" fill="currentColor"
  xmlns="http://www.w3.org/2000/svg">
  <path fill-rule="evenodd" clip-rule="evenodd" d="M7.35813 2.3129C2.05213 5.9239 -0.0188706 9.4399 0.000129438 14.8089C0.0211294 21.0259 2.46013 25.4849 7.37513 28.2919C9.56313 29.5409 11.3561 31.0969 11.3601 31.7489C11.3651 32.4009 17.2221 107.326 24.3761 198.249C31.5301 289.172 38.1351 373.126 39.0531 384.813L40.7221 406.063H51.5451C61.7241 406.063 62.3681 405.943 62.3681 404.05C62.3681 402.944 61.4781 394.056 60.3901 384.3C59.3021 374.545 51.4231 302.663 42.8821 224.563C34.3411 146.463 26.6811 76.6219 25.8601 69.3609C25.0401 62.0999 24.4131 55.5749 24.4681 54.8609C24.8111 50.4299 55.1121 203.564 61.8071 243.563C68.0041 280.587 76.4381 347.684 79.3421 383.063C80.8021 400.851 81.1421 402.762 82.9681 403.463C83.8181 403.789 85.3801 403.592 86.4401 403.024C88.0301 402.173 88.3651 400.904 88.3481 395.778C88.2751 372.771 75.9711 287.424 61.9051 212.351C59.4091 199.035 57.3681 187.868 57.3681 187.536C57.3681 186.121 74.8361 178.913 82.9911 176.963C95.5451 173.961 103.071 174.659 130.868 181.407C164.136 189.482 170.272 190.404 186.368 189.747C197.856 189.279 227.026 185.739 228.079 184.686C228.265 184.499 225.733 172.021 222.453 156.955C219.172 141.889 212.14 109.538 206.827 85.0629C201.513 60.5879 197.023 40.4129 196.85 40.2299C196.677 40.0469 189.41 40.8039 180.701 41.9119C148.28 46.0389 147.402 45.9819 113.16 37.4889C88.7231 31.4279 76.4311 29.0629 69.3681 29.0629C59.0251 29.0629 40.8671 33.3589 30.9401 38.1559C28.7601 39.2089 26.6761 39.7319 26.3091 39.3169C25.9421 38.9019 25.1881 36.1639 24.6331 33.2329C23.8261 28.9719 23.8951 27.7979 24.9761 27.3829C30.0041 25.4539 32.0541 13.3399 28.3731 7.3039C24.0141 0.153898 14.0181 -2.2201 7.35813 2.3129ZM66.4331 39.0629C68.5031 39.0629 68.5551 39.1989 67.1071 40.8129C66.0911 41.9439 65.7311 43.5739 66.0891 45.4219C66.6051 48.0849 66.4971 48.2019 64.5051 47.1369C63.0021 46.3319 61.7951 46.2999 60.4341 47.0279C57.7171 48.4819 57.3681 48.3519 57.3681 45.8919C57.3681 44.6979 56.6421 42.9189 55.7561 41.9389C54.2541 40.2799 54.3161 40.1139 56.6611 39.5259C58.0541 39.1759 59.4521 37.9259 59.7911 36.7279L60.4031 34.5629L62.2961 36.8129C63.3371 38.0499 65.1991 39.0629 66.4331 39.0629ZM213.987 37.1989C209.653 37.6349 205.981 38.1199 205.827 38.2769C205.532 38.5799 210.195 60.2769 210.619 60.5709C210.756 60.6669 215.593 60.3339 221.368 59.8329C239.315 58.2739 253.071 62.1919 260.554 70.9919L263.59 74.5629L262.998 69.0459C262.108 60.7639 259.669 54.6869 255.194 49.6029C246.261 39.4539 232.566 35.3319 213.987 37.1989ZM83.7301 38.5629C84.0461 39.3879 85.4441 40.0629 86.8371 40.0629C89.4441 40.0629 90.2081 41.4259 88.2721 42.6219C87.6691 42.9949 87.3611 44.5589 87.5861 46.0969C87.9621 48.6579 87.7381 48.8859 84.9321 48.7899C83.2471 48.7329 81.1381 49.0219 80.2461 49.4319C78.9361 50.0349 78.7131 49.7089 79.0891 47.7429C79.4201 46.0129 78.9071 44.8529 77.3171 43.7399L75.0801 42.1729L77.6881 41.5189C79.1231 41.1589 80.5681 40.0089 80.9001 38.9639C81.6231 36.6839 82.9371 36.4979 83.7301 38.5629ZM106.089 41.9879C106.751 43.0469 108.293 44.0599 109.517 44.2379C111.654 44.5499 111.671 44.6339 109.954 46.3429C108.74 47.5509 108.365 48.9149 108.786 50.5929C109.45 53.2369 108.503 53.7979 106.595 51.8899C105.706 51.0009 104.811 50.9959 102.895 51.8689C100.538 52.9419 100.368 52.8409 100.368 50.3699C100.368 48.9129 99.6231 46.8979 98.7131 45.8919C97.1501 44.1649 97.2021 44.0629 99.6461 44.0629C101.355 44.0629 102.449 43.3839 102.868 42.0629C103.665 39.5529 104.555 39.5319 106.089 41.9879ZM43.7301 43.5629C44.0691 44.4479 45.5711 45.0629 47.3931 45.0629C50.3681 45.0629 50.4251 45.1429 48.9521 47.2469C48.1111 48.4479 47.6681 50.4099 47.9681 51.6069C48.4341 53.4629 48.0991 53.7769 45.6911 53.7419C44.1381 53.7199 42.0801 54.0559 41.1181 54.4889C39.6941 55.1299 39.3681 54.7849 39.3681 52.6389C39.3681 51.1869 38.6931 49.7409 37.8681 49.4249C35.7461 48.6099 36.0081 47.3899 38.4421 46.7539C39.5831 46.4559 40.7611 45.2779 41.0591 44.1369C41.6951 41.7029 42.9151 41.4409 43.7301 43.5629ZM130.145 50.0629C132.6 50.0629 132.623 50.1239 130.9 52.0279C129.787 53.2579 129.303 54.9409 129.606 56.5279C130.155 59.4009 130.019 59.4819 127.195 57.9699C125.718 57.1799 124.851 57.1799 124.061 57.9699C122.241 59.7899 120.508 59.2429 121.087 57.0299C121.391 55.8659 120.893 54.1959 119.92 53.1209C118.314 51.3449 118.334 51.2089 120.296 50.5859C121.437 50.2239 122.887 48.9609 123.52 47.7789L124.669 45.6309L126.141 47.8469C127.015 49.1649 128.639 50.0629 130.145 50.0629ZM151.99 53.0629C154.702 53.0629 155.054 54.2489 152.878 56.0549C151.922 56.8479 151.606 58.1649 151.998 59.7269C152.551 61.9269 152.366 62.1009 150.082 61.5269C148.692 61.1779 146.612 61.3969 145.461 62.0129C143.548 63.0369 143.368 62.8689 143.368 60.0669C143.368 58.2629 142.75 56.7629 141.868 56.4249C139.692 55.5899 140.029 54.0629 142.389 54.0629C143.6 54.0629 144.89 53.0119 145.604 51.4439L146.798 48.8249L148.205 50.9439C148.982 52.1139 150.677 53.0629 151.99 53.0629ZM195.197 53.0629C197.501 53.0629 198.101 54.4919 196.272 55.6219C195.669 55.9949 195.371 57.6269 195.609 59.2489C196.005 61.9529 195.837 62.1469 193.587 61.5819C191.977 61.1779 190.486 61.5519 189.25 62.6689C187.453 64.2959 187.368 64.2559 187.368 61.7749C187.368 60.2149 186.468 58.5439 185.118 57.5949L182.868 56.0139L185.195 55.4019C186.474 55.0649 187.948 53.6669 188.47 52.2939C189.357 49.9619 189.536 49.9049 191.222 51.4309C192.214 52.3289 194.003 53.0629 195.197 53.0629ZM171.006 52.5629C171.344 53.4419 172.843 54.0629 174.63 54.0629C177.597 54.0629 177.63 54.1159 175.9 56.0279C174.805 57.2379 174.304 58.9459 174.596 60.4729C175.028 62.7369 174.822 62.9039 172.221 62.3839C170.59 62.0569 168.731 62.3469 167.87 63.0609C166.602 64.1139 166.368 63.9189 166.368 61.8079C166.368 60.4329 165.693 58.7479 164.868 58.0629C162.804 56.3499 162.989 55.0629 165.301 55.0629C166.364 55.0629 167.519 54.1629 167.868 53.0629C168.618 50.6999 170.195 50.4489 171.006 52.5629ZM71.1451 63.0629C73.5621 63.0629 73.6001 63.1489 71.9741 64.9449C70.7811 66.2639 70.4761 67.6429 70.9551 69.5529C71.5981 72.1149 71.5071 72.2079 69.4361 71.0999C67.6621 70.1499 66.7611 70.2309 64.8011 71.5149C62.4311 73.0679 62.3681 73.0389 62.3681 70.4149C62.3681 68.9329 61.6421 66.9189 60.7561 65.9389C59.2541 64.2799 59.3161 64.1139 61.6611 63.5259C63.0461 63.1779 64.4641 61.9189 64.8121 60.7279L65.4451 58.5629L67.0281 60.8129C67.9601 62.1369 69.6541 63.0629 71.1451 63.0629ZM91.9901 64.0629C94.6461 64.0629 95.0621 65.2419 93.0081 66.9469C92.2601 67.5679 91.8501 69.1349 92.0981 70.4299C92.4861 72.4629 92.1601 72.7789 89.7081 72.7429C88.1461 72.7199 86.0131 73.0819 84.9681 73.5459C83.2991 74.2889 83.1491 74.0739 83.7271 71.7669C84.2371 69.7379 83.9241 68.8959 82.3491 68.0529C79.9911 66.7909 80.6031 65.0629 83.4081 65.0629C84.6631 65.0629 85.5651 64.1239 86.0081 62.3599L86.6871 59.6569L88.1491 61.8599C88.9751 63.1029 90.6481 64.0629 91.9901 64.0629ZM114.606 68.0629C116.603 68.0629 116.614 68.1339 114.898 70.0299C113.898 71.1349 113.342 72.8539 113.628 73.9509C114.059 75.5969 113.646 75.8879 111.004 75.7949C109.279 75.7349 107.138 76.0219 106.246 76.4319C104.92 77.0419 104.714 76.7039 105.119 74.5859C105.429 72.9639 104.976 71.2869 103.909 70.1079C102.286 68.3149 102.317 68.2079 104.536 67.8929C105.818 67.7119 107.316 66.5409 107.864 65.2909L108.861 63.0199L110.698 65.5409C111.708 66.9279 113.467 68.0629 114.606 68.0629ZM52.1971 69.0629C54.4811 69.0629 55.1061 70.4889 53.3091 71.5989C52.6911 71.9819 52.5251 73.5019 52.9111 75.2579C53.5121 77.9929 53.3781 78.2009 51.4201 77.5799C50.0981 77.1599 48.3261 77.5159 46.8191 78.5029C44.4111 80.0809 44.3681 80.0579 44.3681 77.1929C44.3681 75.5229 43.7271 74.0309 42.8681 73.7009C40.9141 72.9509 40.9291 71.0629 42.8891 71.0629C43.7261 71.0629 44.9251 69.9349 45.5531 68.5559C46.5841 66.2929 46.8571 66.1959 48.3601 67.5559C49.2761 68.3849 51.0031 69.0629 52.1971 69.0629ZM134.425 74.0629C136.487 74.0629 137.04 75.5299 135.368 76.5629C134.818 76.9029 134.368 78.5199 134.368 80.1569C134.368 82.8229 134.16 83.0219 132.368 82.0629C130.98 81.3199 129.777 81.3089 128.434 82.0279C125.624 83.5319 125.261 83.3359 125.929 80.6759C126.372 78.9129 125.947 77.8809 124.304 76.7309L122.08 75.1729L124.751 74.5029C126.219 74.1349 127.898 72.9409 128.482 71.8499C129.532 69.8869 129.557 69.8879 131.012 71.9649C131.82 73.1189 133.356 74.0629 134.425 74.0629ZM156.532 77.0629C158.118 77.0629 158.404 77.4589 157.794 78.8129C157.361 79.7759 157.023 81.7929 157.043 83.2959C157.074 85.6409 156.759 85.9479 154.817 85.4609C153.572 85.1479 151.612 85.3969 150.461 86.0129C148.558 87.0309 148.368 86.8669 148.368 84.2049C148.368 82.5249 147.729 81.0319 146.868 80.7009C144.677 79.8609 145.035 78.0629 147.393 78.0629C148.666 78.0629 149.794 77.0729 150.432 75.3959L151.446 72.7289L152.963 74.8959C153.798 76.0879 155.404 77.0629 156.532 77.0629ZM179.393 78.0629C181.451 78.0629 181.5 78.2129 180.12 80.3179C179.127 81.8339 178.915 83.3089 179.473 84.8179C180.395 87.3099 180.075 87.5119 177.44 86.1019C176.18 85.4269 175.081 85.5669 173.756 86.5699C171.144 88.5479 170.465 88.4069 171.091 86.0149C171.431 84.7149 170.813 83.1009 169.4 81.5969L167.174 79.2279L169.521 78.8949C170.812 78.7129 172.318 77.5299 172.868 76.2679L173.868 73.9739L175.528 76.0179C176.441 77.1429 178.181 78.0629 179.393 78.0629ZM199.843 77.0629C202.472 77.0629 202.53 77.1659 201.12 79.3179C200.103 80.8709 199.911 82.2969 200.502 83.8969C201.303 86.0629 201.165 86.1769 198.46 85.5829C196.797 85.2179 195.279 85.3979 194.904 86.0039C193.896 87.6359 192.368 87.2579 192.368 85.3769C192.368 84.4499 191.442 82.7059 190.309 81.5009L188.251 79.3089L190.69 78.6969C192.055 78.3539 193.409 77.0889 193.765 75.8239C194.358 73.7139 194.49 73.6799 195.745 75.3129C196.484 76.2759 198.328 77.0629 199.843 77.0629ZM221.936 78.2049C218.123 78.6939 214.886 79.2109 214.743 79.3549C214.411 79.6859 219.008 101.054 219.501 101.476C219.703 101.648 223.468 101.367 227.868 100.85C232.268 100.334 239.632 100.152 244.233 100.446C254.203 101.085 262.927 104.689 268.858 110.62L272.672 114.433L272.153 107.979C271.511 99.9789 268.046 92.8109 262.318 87.6369C257.237 83.0459 251.56 80.4229 242.595 78.5229C235.147 76.9449 232.124 76.8979 221.936 78.2049ZM271.368 84.5019C271.368 90.9229 274.195 99.1429 278.398 104.946C283.397 111.847 290.173 115.424 313.368 123.408C334.32 130.621 345.547 135.276 350.118 138.647C352.335 140.282 352.368 140.257 352.367 136.935C352.366 131.532 347.262 122.021 341.76 117.168C336.077 112.157 332.692 110.354 314.368 102.575C296.432 94.9619 282.315 87.6689 276.289 82.9069L271.368 79.0159V84.5019ZM72.1361 85.0629C72.8231 86.1629 74.2811 87.0629 75.3761 87.0629C77.5101 87.0629 78.0481 88.5249 76.3091 89.5989C75.7001 89.9759 75.5231 91.4939 75.8931 93.1749C76.5171 96.0189 76.4661 96.0649 73.9241 94.9069C71.9271 93.9969 71.0381 93.9929 70.1411 94.8899C68.2981 96.7329 67.3681 96.2779 67.3681 93.5319C67.3681 92.1389 66.6931 90.7409 65.8681 90.4249C63.6921 89.5899 64.0211 88.5419 66.8681 87.2449C68.2431 86.6179 69.3681 85.4209 69.3681 84.5839C69.3681 82.4649 70.6521 82.6869 72.1361 85.0629ZM96.9251 88.0629C99.6971 88.0629 100.07 89.2349 97.8781 91.0549C96.9071 91.8609 96.6061 93.1619 97.0141 94.7869C97.6011 97.1289 97.4541 97.2409 94.5991 96.6139C92.8101 96.2209 91.2891 96.3819 90.9041 97.0039C89.7551 98.8629 88.3681 98.1419 88.3681 95.6849C88.3681 94.3779 87.6981 92.7519 86.8791 92.0719C85.0801 90.5789 85.8061 89.0629 88.3191 89.0629C89.4661 89.0629 90.3991 88.0739 90.8151 86.4189L91.4781 83.7749L92.9801 85.9189C93.8181 87.1159 95.5601 88.0629 96.9251 88.0629ZM119.596 92.0629C121.55 92.0629 121.576 92.1759 120.023 93.8919C119.113 94.8979 118.368 96.9129 118.368 98.3699C118.368 100.796 118.167 100.929 115.994 99.9389C114.275 99.1549 113.04 99.1679 111.515 99.9849C109.557 101.032 109.449 100.908 109.984 98.2309C110.402 96.1409 110.122 95.1829 108.964 94.7379C106.697 93.8679 106.984 92.0629 109.389 92.0629C110.566 92.0629 111.879 91.0359 112.53 89.6069L113.649 87.1509L115.581 89.6069C116.644 90.9579 118.45 92.0629 119.596 92.0629ZM57.1971 93.0629C59.5041 93.0629 60.1011 94.4919 58.2671 95.6249C57.6281 96.0199 57.4171 97.5579 57.7641 99.2919C58.3271 102.106 58.2111 102.24 55.7471 101.622C53.9601 101.173 52.5371 101.505 51.2501 102.669C49.4511 104.298 49.3681 104.252 49.3681 101.628C49.3681 100.018 48.4711 98.1569 47.1961 97.1249L45.0241 95.3659L47.5771 94.7259C49.0461 94.3569 50.3741 93.1499 50.7061 91.8799C51.2511 89.7929 51.3821 89.7659 53.1541 91.3689C54.1831 92.3009 56.0031 93.0629 57.1971 93.0629ZM136.136 96.0629C136.823 97.1629 138.336 98.0629 139.499 98.0629C141.323 98.0629 141.431 98.2819 140.285 99.6629C139.555 100.542 139.059 102.588 139.182 104.208C139.386 106.876 139.216 107.052 137.387 106.073C135.983 105.322 134.779 105.308 133.434 106.028C130.607 107.541 130.189 107.335 130.546 104.606C130.752 103.034 130.149 101.623 128.869 100.688C126.919 99.2609 126.936 99.2089 129.583 98.5449C131.075 98.1709 132.568 97.0089 132.9 95.9639C133.671 93.5319 134.572 93.5589 136.136 96.0629ZM161.676 101.063C164.597 101.063 164.63 101.116 162.9 103.028C161.805 104.238 161.304 105.946 161.596 107.473C162.028 109.737 161.822 109.904 159.221 109.384C157.59 109.057 155.731 109.347 154.87 110.061C153.59 111.123 153.368 110.862 153.368 108.292C153.368 106.535 152.742 105.037 151.868 104.701C149.677 103.861 150.035 102.063 152.393 102.063C153.672 102.063 154.817 101.051 155.501 99.3129L156.585 96.5629L157.629 98.8129C158.373 100.415 159.538 101.063 161.676 101.063ZM184.401 102.063C186.315 102.063 186.434 102.278 185.285 103.663C184.555 104.542 184.059 106.588 184.182 108.208C184.385 110.872 184.214 111.051 182.398 110.079C180.846 109.249 179.795 109.393 177.783 110.71C175.198 112.405 175.181 112.398 175.516 109.838C175.711 108.353 175.095 106.418 174.065 105.281C172.331 103.365 172.353 103.284 174.755 102.681C176.119 102.338 177.548 101.07 177.932 99.8619L178.629 97.6669L180.409 99.8649C181.388 101.074 183.184 102.063 184.401 102.063ZM201.006 99.5629C201.338 100.427 202.832 101.063 204.532 101.063C207.364 101.063 207.421 101.15 205.952 103.247C205.031 104.562 204.665 106.396 205.031 107.857C205.562 109.971 205.37 110.198 203.542 109.618C202.388 109.252 200.527 109.443 199.406 110.043C197.667 110.973 197.368 110.836 197.368 109.107C197.368 107.992 196.468 106.518 195.368 105.831C192.764 104.205 192.845 103.622 195.868 102.245C197.243 101.618 198.368 100.421 198.368 99.5839C198.368 97.6239 200.256 97.6089 201.006 99.5629ZM77.1361 109.063C77.8231 110.163 79.2971 111.063 80.4121 111.063C82.1591 111.063 82.2841 111.352 81.3181 113.156C80.7021 114.307 80.4681 116.324 80.7971 117.637C81.3581 119.871 81.2251 119.959 78.7191 119.006C76.8891 118.31 75.7141 118.317 75.0051 119.026C73.3781 120.653 72.3681 120.25 72.3681 117.973C72.3681 116.824 71.3911 115.092 70.1961 114.125L68.0241 112.366L70.6291 111.712C72.0621 111.353 73.5201 110.159 73.8691 109.061C74.6711 106.533 75.5571 106.534 77.1361 109.063ZM101.544 112.063C104.36 112.063 104.384 112.109 102.808 114.514C101.807 116.042 101.463 117.788 101.896 119.15C102.518 121.111 102.318 121.267 99.9581 120.675C98.5111 120.312 96.4361 120.491 95.3471 121.074C93.6531 121.981 93.3681 121.816 93.3681 119.927C93.3681 118.713 92.6061 116.878 91.6741 115.849C90.0691 114.076 90.1001 113.946 92.2511 113.383C93.5001 113.057 94.9861 111.614 95.5531 110.176L96.5851 107.563L97.6291 109.813C98.3571 111.381 99.5431 112.063 101.544 112.063ZM123.031 115.693C125.487 116.31 126.052 117.522 124.368 118.563C123.818 118.903 123.368 120.495 123.368 122.101C123.368 124.81 123.197 124.942 120.994 123.939C119.256 123.147 118.03 123.174 116.413 124.039C114.388 125.123 114.231 125.015 114.529 122.74C114.716 121.318 114.044 119.362 112.956 118.161C111.074 116.08 111.08 116.063 113.734 116.063C115.649 116.063 116.749 115.32 117.6 113.452C118.773 110.879 118.804 110.872 119.741 112.974C120.265 114.147 121.745 115.37 123.031 115.693ZM62.3121 117.063C64.4771 117.063 64.5171 117.187 63.0701 119.395C62.0801 120.906 61.8581 122.226 62.4401 123.145C63.9731 125.567 63.4701 126.305 60.7501 125.623C58.9601 125.173 57.5381 125.504 56.2501 126.669C54.4531 128.296 54.3681 128.256 54.3681 125.775C54.3681 124.248 53.4801 122.554 52.2151 121.668L50.0611 120.16L52.6301 118.99C54.0431 118.346 55.4421 116.887 55.7401 115.747C56.2521 113.789 56.3851 113.768 58.1541 115.369C59.1831 116.301 61.0541 117.063 62.3121 117.063ZM140.868 120.063C141.287 121.384 142.381 122.063 144.09 122.063C146.561 122.063 146.601 122.148 144.974 123.945C143.8 125.243 143.478 126.651 143.936 128.477C144.578 131.034 144.509 131.084 141.957 129.922C139.935 129 139.038 128.993 138.141 129.89C136.326 131.705 135.368 131.289 135.368 128.685C135.368 127.378 134.698 125.752 133.879 125.072C132.069 123.57 132.81 122.063 135.36 122.063C136.39 122.063 137.519 121.163 137.868 120.063C138.217 118.963 138.892 118.063 139.368 118.063C139.844 118.063 140.519 118.963 140.868 120.063ZM230.499 119.077C226.996 119.567 223.948 120.15 223.725 120.373C223.502 120.596 224.231 124.78 225.346 129.671C226.46 134.561 227.585 139.496 227.844 140.635C228.293 142.604 228.68 142.662 235.592 141.801C245.786 140.531 260.811 141.448 266.79 143.705C269.497 144.727 274.182 147.812 277.201 150.561L282.691 155.559L282.137 149.447C280.121 127.223 259.397 115.034 230.499 119.077ZM281.234 121.626C280.304 135.029 286.014 146.663 296.957 153.663C300.043 155.637 311.271 160.108 324.501 164.631C346.263 172.07 353.99 175.289 359.618 179.259L362.368 181.199L362.373 178.381C362.387 170.571 355.761 160.182 346.863 154.06C344.505 152.437 334.991 147.897 325.721 143.972C301.251 133.609 290.519 127.988 284.118 122.183C281.566 119.868 281.358 119.828 281.234 121.626ZM162.868 123.063C163.274 124.341 164.381 125.063 165.935 125.063C168.459 125.063 169.18 126.443 167.272 127.622C166.669 127.995 166.362 129.569 166.59 131.12C166.971 133.718 166.791 133.898 164.308 133.401C162.825 133.104 160.702 133.349 159.588 133.945C157.821 134.891 157.632 134.771 158.095 132.998C158.43 131.718 157.803 130.091 156.4 128.597L154.174 126.228L156.521 125.895C157.812 125.713 159.312 124.551 159.855 123.313C161.075 120.532 162.039 120.452 162.868 123.063ZM209.933 125.063C212.557 125.063 212.603 125.146 210.974 126.945C209.81 128.232 209.478 129.655 209.927 131.442C210.545 133.906 210.411 134.022 207.597 133.459C205.863 133.112 204.325 133.323 203.93 133.962C202.731 135.902 201.368 135.141 201.368 132.532C201.368 131.139 200.693 129.741 199.868 129.425C197.692 128.59 198.021 127.542 200.868 126.245C202.445 125.526 203.38 124.267 203.401 122.834L203.435 120.563L205.312 122.813C206.422 124.144 208.31 125.063 209.933 125.063ZM189.145 126.063C191.562 126.063 191.6 126.149 189.974 127.945C188.781 129.264 188.476 130.643 188.955 132.553C189.592 135.093 189.493 135.2 187.503 134.135C186.001 133.332 184.794 133.3 183.434 134.028C180.717 135.482 180.368 135.352 180.368 132.892C180.368 131.698 179.672 129.952 178.822 129.012C177.408 127.449 177.483 127.251 179.702 126.694C181.044 126.357 182.423 125.074 182.787 123.824L183.445 121.563L185.028 123.813C185.96 125.137 187.654 126.063 189.145 126.063ZM85.3351 135.063C87.3041 135.063 87.3621 135.234 86.0351 137.128C85.2401 138.263 84.8131 140.049 85.0871 141.096C85.4961 142.659 85.0731 142.975 82.7261 142.865C81.1541 142.791 79.0021 143.108 77.9441 143.57C76.3481 144.267 76.1401 144.1 76.7231 142.581C77.1851 141.375 76.7141 139.995 75.3381 138.531L73.2511 136.309L75.7431 135.684C77.1131 135.34 78.5481 134.07 78.9321 132.862L79.6291 130.667L81.4091 132.865C82.3881 134.074 84.1541 135.063 85.3351 135.063ZM103.006 134.563C103.323 135.388 104.707 136.063 106.082 136.063C108.095 136.063 108.429 136.404 107.797 137.813C107.365 138.776 106.979 140.821 106.94 142.359C106.878 144.754 106.543 145.073 104.597 144.584C103.349 144.271 101.436 144.491 100.347 145.074C98.6531 145.981 98.3681 145.816 98.3681 143.927C98.3681 142.713 97.6061 140.878 96.6741 139.849C95.0711 138.078 95.0961 137.947 97.1411 137.412C98.3291 137.101 99.5721 135.996 99.9021 134.955C100.622 132.686 102.209 132.486 103.006 134.563ZM358.956 135.813C362.79 152.665 379.432 162.404 406.731 163.773L418.594 164.368L417.936 160.965C417.574 159.094 416.614 154.396 415.802 150.525L414.326 143.488L400.597 142.283C387.077 141.097 370.434 137.695 363.15 134.628C358.288 132.581 358.224 132.599 358.956 135.813ZM128.077 139.705C130.204 140.239 130.303 140.479 128.998 141.933C128.099 142.935 127.743 144.636 128.075 146.348C128.59 149.005 128.5 149.08 126.118 147.995C124.252 147.145 123.084 147.145 121.494 147.995C119.569 149.026 119.368 148.877 119.368 146.427C119.368 144.938 118.623 142.898 117.713 141.892C116.159 140.174 116.188 140.063 118.19 140.063C119.389 140.063 121.076 138.911 122.046 137.431C123.763 134.811 123.775 134.809 124.732 136.953C125.261 138.137 126.766 139.376 128.077 139.705ZM63.0061 139.563C63.3411 140.436 64.8391 141.063 66.5901 141.063C69.4821 141.063 69.5411 141.15 68.1201 143.318C67.0941 144.885 66.9091 146.293 67.5141 147.929C68.3191 150.104 68.1841 150.234 65.7591 149.625C63.9591 149.173 62.5411 149.502 61.2501 150.669C59.4521 152.297 59.3681 152.255 59.3681 149.726C59.3681 148.163 58.5501 146.569 57.3681 145.831C54.7591 144.202 54.8381 143.277 57.6181 142.883C59.0641 142.677 59.9821 141.759 60.1881 140.313C60.5511 137.751 62.1481 137.326 63.0061 139.563ZM149.596 146.063C151.6 146.063 151.612 146.136 149.904 148.023C148.702 149.351 148.335 150.796 148.765 152.508C149.358 154.87 149.244 154.964 147.01 153.946C145.269 153.153 144.044 153.166 142.494 153.995C140.624 154.996 140.368 154.867 140.368 152.927C140.368 151.713 139.634 149.909 138.736 148.917C137.21 147.231 137.269 147.051 139.65 146.146C141.051 145.613 142.496 144.236 142.861 143.085C143.512 141.034 143.564 141.043 145.519 143.528C146.616 144.922 148.45 146.063 149.596 146.063ZM171.313 149.063C173.216 149.063 173.309 149.298 172.204 151.313C171.525 152.551 171.091 154.573 171.239 155.807C171.475 157.765 171.214 157.942 169.194 157.194C167.587 156.6 166.16 156.809 164.528 157.877C162.258 159.365 162.19 159.33 162.516 156.838C162.711 155.353 162.095 153.418 161.065 152.281C159.331 150.365 159.353 150.284 161.755 149.681C163.119 149.338 164.548 148.07 164.932 146.862L165.629 144.667L167.409 146.865C168.388 148.074 170.145 149.063 171.313 149.063ZM214.025 149.063C216.12 149.063 216.299 149.324 215.379 151.042C214.796 152.131 214.586 154.083 214.911 155.379C215.448 157.517 215.229 157.696 212.554 157.304C210.932 157.066 209.3 157.364 208.927 157.967C207.758 159.859 206.368 159.163 206.368 156.685C206.368 155.336 205.394 153.649 204.118 152.786L201.868 151.266L204.531 150.578C206.285 150.125 207.43 148.98 207.883 147.226L208.571 144.563L210.091 146.813C210.964 148.105 212.64 149.063 214.025 149.063ZM190.006 147.563C190.323 148.388 191.407 149.063 192.416 149.063C194.823 149.063 195.829 150.802 194.411 152.511C193.774 153.279 193.569 155.017 193.941 156.499C194.577 159.032 194.506 159.083 191.957 157.922C189.935 157 189.038 156.993 188.141 157.89C186.326 159.705 185.368 159.289 185.368 156.685C185.368 155.378 184.66 153.72 183.794 153.002C182.396 151.841 182.507 151.546 184.794 150.348C186.21 149.606 187.368 148.338 187.368 147.531C187.368 145.612 189.267 145.635 190.006 147.563ZM90.1451 159.063C92.4891 159.063 92.5611 159.193 91.1071 160.813C90.0911 161.944 89.7311 163.574 90.0891 165.422C90.6101 168.11 90.5111 168.21 88.4381 167.101C86.6621 166.15 85.7611 166.23 83.8011 167.515C81.4311 169.068 81.3681 169.039 81.3681 166.415C81.3681 164.933 80.6721 162.952 79.8221 162.012C78.4081 160.449 78.4831 160.251 80.7021 159.694C82.0441 159.357 83.4231 158.074 83.7871 156.824L84.4451 154.563L86.0281 156.813C86.9601 158.137 88.6541 159.063 90.1451 159.063ZM110.99 160.063C113.468 160.063 114.164 161.453 112.272 162.622C111.669 162.995 111.361 164.559 111.586 166.097C111.962 168.658 111.738 168.886 108.932 168.79C107.247 168.733 105.058 169.052 104.067 169.501C102.524 170.199 102.357 169.956 102.897 167.802C103.376 165.895 102.992 164.913 101.304 163.731L99.0801 162.173L101.733 161.508C103.469 161.072 104.61 159.946 105.036 158.25L105.687 155.657L107.149 157.86C107.975 159.103 109.648 160.063 110.99 160.063ZM129.368 160.611C129.368 161.463 130.742 162.737 132.422 163.444C135.175 164.601 135.315 164.862 133.836 166.089C132.726 167.011 132.375 168.346 132.75 170.221C133.28 172.875 133.198 172.942 130.762 171.833C128.819 170.947 127.766 170.958 126.294 171.877C124.56 172.96 124.368 172.793 124.368 170.194C124.368 168.607 123.633 166.698 122.735 165.953C121.259 164.727 121.33 164.545 123.485 164.048C124.796 163.745 126.312 162.5 126.855 161.28C127.996 158.719 129.368 158.353 129.368 160.611ZM238.969 160.168C235.724 160.641 232.898 161.2 232.688 161.409C232.479 161.619 233.347 166.464 234.617 172.177L236.927 182.563L252.397 182.227C272.212 181.797 278.289 183.398 286.979 191.336L292.7 196.563L291.997 190.572C289.269 167.33 269.108 155.77 238.969 160.168ZM290.778 167.813C292.009 179.924 298.388 190.035 308.153 195.35C310.844 196.814 322.455 201.23 333.957 205.163C357.539 213.227 364.315 216.023 369.067 219.647L372.368 222.165V219.795C372.368 214.067 369.242 207.087 364.213 201.584C357.96 194.742 354.489 192.664 337.324 185.49C317.559 177.23 302.063 169.47 296.41 165.002C293.669 162.836 291.126 161.063 290.759 161.063C290.392 161.063 290.4 164.1 290.778 167.813ZM67.7301 163.563C68.0691 164.448 69.5711 165.063 71.3931 165.063C74.3681 165.063 74.4251 165.143 72.9521 167.247C72.0311 168.562 71.6651 170.396 72.0311 171.857C72.5611 173.969 72.3691 174.198 70.5501 173.621C69.2811 173.218 67.4581 173.613 65.9141 174.625C63.3811 176.285 63.3681 176.278 63.3681 173.285C63.3681 171.534 62.7411 170.036 61.8681 169.701C59.7261 168.879 60.0161 167.388 62.4421 166.754C63.5831 166.456 64.7611 165.278 65.0591 164.137C65.6951 161.703 66.9151 161.441 67.7301 163.563ZM154.562 170.063C156.549 170.063 156.577 170.175 155.023 171.892C154.113 172.898 153.368 174.633 153.368 175.748C153.368 177.303 152.726 177.767 150.618 177.739C149.106 177.718 147.138 178.034 146.246 178.44C144.945 179.032 144.713 178.709 145.076 176.81C145.345 175.402 144.888 173.909 143.948 173.13C141.8 171.347 141.961 170.063 144.333 170.063C145.413 170.063 146.802 169.12 147.419 167.967L148.541 165.871L150.493 167.967C151.567 169.12 153.398 170.063 154.562 170.063ZM176.145 173.063C178.562 173.063 178.6 173.149 176.974 174.945C175.804 176.239 175.478 177.653 175.932 179.464C176.553 181.937 176.441 182.041 174.102 181.152C172.278 180.459 171.042 180.603 169.489 181.691C167.483 183.096 167.368 183.029 167.368 180.448C167.368 178.948 166.672 176.952 165.822 176.012C164.407 174.449 164.487 174.25 166.755 173.681C168.119 173.338 169.553 172.055 169.942 170.83L170.649 168.601L172.131 170.832C173.014 172.163 174.634 173.063 176.145 173.063ZM219.112 173.063C221.19 173.063 221.408 173.309 220.402 174.522C219.662 175.414 219.451 177.163 219.858 179.019C220.485 181.872 220.384 182.005 218.202 181.197C216.602 180.606 215.176 180.798 213.623 181.815C211.484 183.217 211.368 183.16 211.368 180.713C211.368 179.087 210.563 177.703 209.192 176.969L207.015 175.804L209.623 174.437C211.057 173.686 212.55 172.065 212.94 170.836L213.649 168.601L215.131 170.832C216.006 172.15 217.635 173.063 219.112 173.063ZM194.73 171.563C195.046 172.388 196.444 173.063 197.837 173.063C200.444 173.063 201.208 174.426 199.272 175.622C198.669 175.995 198.369 177.616 198.605 179.224C199.006 181.958 198.856 182.109 196.296 181.547C194.78 181.214 193.266 181.418 192.904 182.004C191.744 183.882 190.368 183.131 190.368 180.62C190.368 179.276 189.446 177.53 188.318 176.741C186.288 175.319 186.293 175.299 188.751 174.682C190.117 174.339 191.52 173.159 191.869 172.061C192.62 169.694 193.925 169.467 194.73 171.563ZM368.992 176.813C373.081 193.796 390.141 203.461 418.118 204.644C425.926 204.974 428.359 204.778 428.329 203.82C428.26 201.631 424.635 184.997 424.113 184.475C423.838 184.2 418.059 183.525 411.271 182.975C397.943 181.896 382.859 178.989 374.868 175.959C368.42 173.515 368.206 173.546 368.992 176.813ZM92.1651 194.568C84.4821 196.025 67.4971 201.451 66.2891 202.834C65.6701 203.543 68.7821 224.81 69.6281 225.657C69.8621 225.89 73.0671 224.714 76.7511 223.043C80.4351 221.373 87.3691 219.067 92.1591 217.92C104.663 214.924 113.938 215.716 138.868 221.906C172.414 230.236 174.224 230.531 191.368 230.456C203.681 230.401 212.063 229.634 232.134 226.725C272.911 220.815 285.285 221.788 296.397 231.779C299.174 234.276 301.601 236.148 301.79 235.941C302.781 234.855 300.173 223.184 297.902 218.543C292.127 206.738 278.657 200.063 260.612 200.063C257.046 200.063 246.888 201.212 238.039 202.615C190.666 210.13 184.88 210.028 149.368 201.063C119.671 193.566 105.77 191.987 92.1651 194.568ZM300.586 207.866C301.521 220.93 308.636 231.593 320.368 237.511C322.843 238.759 333.418 242.596 343.868 246.037C364.353 252.782 376.487 257.887 380.097 261.278L382.368 263.412V260.919C382.368 256.449 379.429 248.66 375.98 243.988C371.367 237.74 364.512 233.526 346.868 226.096C326.678 217.593 309.736 208.926 304.435 204.388L300.07 200.652L300.586 207.866ZM378.934 217.489C379.978 222.441 384.521 230.041 388.334 233.216C393.592 237.593 402.892 241.7 411.576 243.482C419.94 245.198 438.368 245.642 438.368 244.128C438.368 243.273 436.04 231.451 434.89 226.464C434.446 224.54 433.507 224.315 423.637 223.766C409.985 223.007 397.183 220.736 386.591 217.193L378.286 214.415L378.934 217.489ZM101.702 235.475C94.8271 236.788 84.3051 239.953 77.7781 242.67L74.6881 243.956L76.4611 255.11C77.4371 261.244 78.4191 266.447 78.6441 266.672C78.8681 266.897 82.0591 265.717 85.7341 264.051C94.5461 260.055 107.261 257.079 115.553 257.07C123.06 257.062 128.122 258.024 157.368 265.017C168.643 267.713 181.468 270.456 185.868 271.112C196.501 272.698 212.034 271.765 237.46 268.013C282.867 261.311 294.963 262.225 306.99 273.264L311.673 277.563L311.137 271.549C309.467 252.824 294.044 241.063 271.157 241.063C266.872 241.063 254.704 242.401 244.117 244.037C201.118 250.68 193.854 250.636 164.868 243.559C126.576 234.211 115.646 232.812 101.702 235.475ZM310.368 247.948C310.368 259.45 316.846 270.637 326.928 276.545C329.433 278.013 341.244 282.507 353.175 286.53C375.351 294.009 383.381 297.262 389.118 301.09C392.233 303.169 392.368 303.18 392.368 301.343C392.368 296.989 389.085 288.885 385.469 284.31C380.235 277.688 374.808 274.447 354.868 266.035C333.585 257.056 319.942 250.102 314.547 245.484L310.368 241.907V247.948ZM388.878 258.163C391.426 269.962 402.327 279.322 418.368 283.482C427.435 285.834 448.368 286.865 448.367 284.96C448.366 283.502 445.647 269.753 444.804 266.948C444.42 265.67 442.291 265.193 434.594 264.66C417.659 263.488 400.8 260.04 390.006 255.539C388.331 254.841 388.217 255.105 388.878 258.163ZM110.698 276.544C102.48 278.036 88.5431 282.483 85.7971 284.491C83.9941 285.809 83.9911 286.191 85.6721 296.644C86.6271 302.58 87.5271 307.555 87.6721 307.7C87.8161 307.845 91.7451 306.421 96.4011 304.537C117.041 296.185 125.802 296.181 160.368 304.513C201.861 314.515 205.557 314.684 249.368 308.577C279.793 304.336 290.205 303.547 297.608 304.924C305.359 306.365 313.743 310.629 317.922 315.255C321.211 318.895 321.368 318.957 321.368 316.615C321.368 304.748 314.068 292.083 304.338 287.067C292.591 281.011 280.609 280.518 252.868 284.951C207.473 292.203 204.803 292.117 164.368 282.097C135.791 275.015 125.177 273.917 110.698 276.544ZM319.762 289.659C320.966 301.508 326.522 310.751 336.146 316.915C338.765 318.592 350.445 323.133 362.368 327.11C384.803 334.591 394.265 338.429 399.545 342.189L402.681 344.422L401.994 339.993C400.444 330.004 392.839 319.911 383.114 314.938C381.049 313.882 371.824 309.827 362.614 305.926C342.063 297.222 332.089 292.257 326.3 287.849C318.638 282.015 318.976 281.922 319.762 289.659ZM398.878 299.163C400.067 304.668 402.9 309.377 407.669 313.773C412.888 318.584 415.537 320.032 424.368 322.906C434.884 326.327 458.368 328.395 458.368 325.899C458.368 325.259 457.597 320.711 456.654 315.793C454.674 305.466 454.205 305.067 444.053 305.057C432.861 305.046 411.267 300.843 400.006 296.484C398.337 295.838 398.22 296.116 398.878 299.163ZM329.368 328.388C329.368 337.62 333.96 347.864 340.786 353.857C346.139 358.557 351.857 361.119 371.368 367.562C394.269 375.124 402.647 378.471 408.15 382.257L412.672 385.369L411.975 381.008C410.505 371.815 405.212 363.804 396.772 357.997C394.416 356.376 383.867 351.437 373.332 347.022C350.489 337.45 344.824 334.658 336.029 328.636L329.368 324.076V328.388ZM408.862 339.976C410.376 348.266 417.529 356.416 427.161 360.826C435.933 364.842 442.141 366.136 455.618 366.76C470.399 367.444 469.312 368.61 466.532 355.063L464.788 346.563L453.887 345.833C439.459 344.867 426.837 342.62 416.586 339.191L408.206 336.388L408.862 339.976ZM418.847 380.802C420.952 392.022 432.031 401.276 448.368 405.459C451.943 406.374 460.156 407.403 466.618 407.746C480.256 408.468 479.308 409.586 476.532 396.063L474.787 387.563L461.827 386.366C446.141 384.917 434.182 382.686 425.011 379.495L418.154 377.11L418.847 380.802Z" fill="white"/>
</svg>
